<?xml version="1.0" encoding="UTF-8" standalone="no"?>
<!-- Generator: Adobe Illustrator 17.0.1, SVG Export Plug-In . SVG Version: 6.00 Build 0)  -->

<svg
   xmlns:osb="http://www.openswatchbook.org/uri/2009/osb"
   xmlns:dc="http://purl.org/dc/elements/1.1/"
   xmlns:cc="http://creativecommons.org/ns#"
   xmlns:rdf="http://www.w3.org/1999/02/22-rdf-syntax-ns#"
   xmlns:svg="http://www.w3.org/2000/svg"
   xmlns="http://www.w3.org/2000/svg"
   xmlns:xlink="http://www.w3.org/1999/xlink"
   xmlns:sodipodi="http://sodipodi.sourceforge.net/DTD/sodipodi-0.dtd"
   xmlns:inkscape="http://www.inkscape.org/namespaces/inkscape"
   version="1.1"
   x="0px"
   y="0px"
   width="86px"
   height="86px"
   viewBox="0 0 86 86"
   enable-background="new 0 0 86 86"
   xml:space="preserve"
   id="svg21"
   sodipodi:docname="icon-launcher-template.svg"
   inkscape:version="0.92.4 5da689c313, 2019-01-14"><metadata
   id="metadata27"><rdf:RDF><cc:Work
       rdf:about=""><dc:format>image/svg+xml</dc:format><dc:type
         rdf:resource="http://purl.org/dc/dcmitype/StillImage" /></cc:Work></rdf:RDF></metadata><defs
   id="defs25">
	<linearGradient
   y2="0.7169"
   x2="85.2831"
   y1="85.2831"
   x1="0.7169"
   gradientUnits="userSpaceOnUse"
   id="SVGID_1_"
   osb:paint="gradient">
		<stop
   id="stop3"
   style="stop-color:#493f05;stop-opacity:0.99386501;"
   offset="0" />
		<stop
   id="stop5"
   style="stop-color:#af5800;stop-opacity:1"
   offset="1" />
	</linearGradient>
	
	
	
	
	

		
	<linearGradient
   inkscape:collect="always"
   xlink:href="#SVGID_1_"
   id="linearGradient4688"
   gradientUnits="userSpaceOnUse"
   x1="0.7169"
   y1="85.2831"
   x2="85.2831"
   y2="0.7169" /></defs><sodipodi:namedview
   pagecolor="#ffffff"
   bordercolor="#666666"
   borderopacity="1"
   objecttolerance="10"
   gridtolerance="10"
   guidetolerance="10"
   inkscape:pageopacity="0"
   inkscape:pageshadow="2"
   inkscape:window-width="1366"
   inkscape:window-height="744"
   id="namedview23"
   showgrid="false"
   inkscape:snap-bbox="true"
   inkscape:bbox-paths="true"
   inkscape:bbox-nodes="true"
   inkscape:snap-bbox-edge-midpoints="true"
   inkscape:snap-bbox-midpoints="true"
   inkscape:object-paths="true"
   inkscape:snap-intersection-paths="true"
   inkscape:snap-smooth-nodes="true"
   inkscape:snap-midpoints="true"
   inkscape:snap-object-midpoints="true"
   inkscape:snap-text-baseline="true"
   inkscape:snap-center="true"
   inkscape:snap-page="true"
   inkscape:zoom="5.4883721"
   inkscape:cx="12.910766"
   inkscape:cy="45.976333"
   inkscape:window-x="0"
   inkscape:window-y="24"
   inkscape:window-maximized="1"
   inkscape:current-layer="svg21" />
<g
   id="Layer_2"
   display="none">
</g>
<path
   inkscape:connector-curvature="0"
   style="fill:url(#linearGradient4688);fill-opacity:1"
   id="path8"
   d="M 84.277,0.3 H 43 C 19.417,0.3 0.3,19.418 0.3,43 v 41.277 c 0,0.786 0.637,1.423 1.423,1.423 H 43 C 66.583,85.7 85.7,66.582 85.7,43 V 1.723 C 85.7,0.937 85.063,0.3 84.277,0.3 Z" />
<g
   id="g4642"><path
     d="M 33.557467,37.717044 C 29.655687,30.070625 21.437046,24.787954 11.950921,24.787954 H 9.1468885 c -0.125266,0.946538 -0.197165,1.9079 -0.198647,2.885568 0.003,3.606032 0.883533,7.018606 2.4445415,10.057606 3.912156,7.618994 12.113748,12.877204 21.57912,12.877204 h 3.003421 v -2.867778 c -7.42e-4,-3.59269 -0.87019,-6.993404 -2.417857,-10.02351 z"
     id="path14"
     inkscape:connector-curvature="0"
     style="opacity:0.7;fill:#89e700;stroke-width:0.7412194" /><path
     sodipodi:nodetypes="cscccsccc"
     d="m 46.262,60.443068 c 5.264,-10.316 16.352025,-17.468453 29.15,-17.443 l 4.048727,0.0081 c 9.97e-4,1.207875 2.73e-4,2.5659 0.0023,3.8849 -0.004,4.865 -1.192,9.469 -3.298,13.569 C 70.887,70.741068 59.822,77.835068 47.052,77.835068 H 43 v -3.869 c 10e-4,-4.847 1.174,-9.435 3.262,-13.523 z"
     id="path14-3"
     inkscape:connector-curvature="0"
     style="opacity:0.7;fill:#000000;fill-opacity:0.82822086" /><path
     sodipodi:nodetypes="cscccsccc"
     d="M 33.654237,61.81576 C 28.867143,52.434364 18.783666,45.929906 7.1451556,45.953053 l -3.6819223,0.0074 c -9.066e-4,1.098445 -2.482e-4,2.333436 -0.00209,3.532938 0.00364,4.424242 1.0840077,8.611131 2.9992093,12.339681 C 11.260204,71.18082 21.322742,77.632121 32.935811,77.632121 H 36.62071 V 74.113643 C 36.6198,69.705769 35.553071,65.533431 33.654239,61.815794 Z"
     id="path14-3-6"
     inkscape:connector-curvature="0"
     style="opacity:0.7;fill:#e71a00;fill-opacity:1;stroke-width:0.90940243" /><path
     d="M 47.07101,22.695886 C 43.169229,15.049467 34.950589,9.766796 25.464462,9.766796 H 22.66043 c -0.125266,0.946538 -0.197164,1.907899 -0.198647,2.885568 0.003,3.606032 0.883534,7.018606 2.444542,10.057605 3.912156,7.618994 12.113749,12.877205 21.579121,12.877205 h 3.00342 v -2.867778 c -7.42e-4,-3.592691 -0.870191,-6.993405 -2.417856,-10.02351 z"
     id="path14-7"
     inkscape:connector-curvature="0"
     style="opacity:0.7;fill:#fff72d;fill-opacity:1;stroke-width:0.7412194" /><path
     d="M 76.073078,21.809133 C 71.285984,12.427738 61.202529,5.9464255 49.563997,5.9464255 h -3.440269 c -0.153689,1.161307 -0.241901,2.340802 -0.24372,3.540304 0.0036,4.4242425 1.084007,8.6111325 2.999209,12.3396825 4.799826,9.347748 14.862364,15.799048 26.475433,15.799048 h 3.684899 V 34.106982 C 79.03864,29.699109 77.971911,25.52677 76.073078,21.809133 Z"
     id="path14-7-5"
     inkscape:connector-curvature="0"
     style="opacity:0.7;fill:#2d70ff;fill-opacity:0.96078432;stroke-width:0.90940243" /></g></svg>